<svg xmlns="http://www.w3.org/2000/svg" xmlns:xlink="http://www.w3.org/1999/xlink" width="500" zoomAndPan="magnify" viewBox="0 0 375 374.999991" height="500" preserveAspectRatio="xMidYMid meet" version="1.0"><defs><clipPath id="9238315ea5"><path d="M 91 306 L 187 306 L 187 371.25 L 91 371.25 Z M 91 306 " clip-rule="nonzero"/></clipPath><clipPath id="536eacff03"><path d="M 37.5 0 L 301 0 L 301 361 L 37.5 361 Z M 37.5 0 " clip-rule="nonzero"/></clipPath></defs><path fill="#0a7ea4" d="M 124.238281 356.988281 C 123.230469 357.03125 121.757812 357.042969 119.867188 356.953125 C 118.003906 356.765625 115.734375 356.453125 113.167969 355.84375 C 112.355469 355.671875 111.546875 355.390625 110.699219 355.105469 C 109.855469 354.820312 108.992188 354.496094 108.113281 354.136719 C 108.113281 354.136719 111.367188 349.808594 114.464844 345.410156 C 117.578125 341.015625 120.53125 336.554688 120.53125 336.554688 C 120.53125 336.554688 119.640625 337.601562 118.273438 339.15625 C 116.902344 340.714844 115.046875 342.773438 113.136719 344.8125 C 111.226562 346.851562 109.269531 348.863281 107.773438 350.363281 C 107.019531 351.109375 106.394531 351.738281 105.957031 352.171875 C 105.515625 352.601562 105.261719 352.839844 105.261719 352.839844 C 105.171875 352.792969 105.078125 352.75 104.988281 352.699219 C 103.585938 351.9375 102.179688 351.046875 100.804688 350.058594 C 100.121094 349.554688 99.429688 349.050781 98.777344 348.480469 C 98.128906 347.902344 97.488281 347.292969 96.867188 346.667969 L 96.75 346.554688 L 96.71875 346.523438 C 96.777344 346.585938 96.71875 346.523438 96.726562 346.527344 L 96.664062 346.457031 L 96.425781 346.203125 L 95.945312 345.6875 C 95.765625 345.496094 95.578125 345.296875 95.398438 345.105469 C 95.398438 345.105469 98.714844 341.050781 101.929688 336.945312 C 105.15625 332.835938 108.277344 328.671875 108.277344 328.671875 C 108.277344 328.671875 107.332031 329.492188 105.882812 330.703125 C 104.433594 331.914062 102.472656 333.511719 100.464844 335.085938 C 99.464844 335.867188 98.453125 336.652344 97.492188 337.375 C 96.535156 338.097656 95.648438 338.746094 94.875 339.304688 C 93.335938 340.425781 92.285156 341.160156 92.285156 341.160156 C 92.09375 340.859375 91.894531 340.566406 91.695312 340.269531 L 91.3125 339.683594 C 91.1875 339.492188 91.074219 339.285156 90.953125 339.085938 C 90.714844 338.6875 90.476562 338.292969 90.242188 337.886719 C 90.023438 337.484375 89.804688 337.074219 89.582031 336.664062 C 89.582031 336.664062 89.5 336.507812 89.417969 336.355469 C 89.339844 336.191406 89.261719 336.035156 89.261719 336.035156 L 88.976562 335.382812 C 88.785156 334.957031 88.585938 334.519531 88.40625 334.082031 C 88.234375 333.648438 88.058594 333.207031 87.886719 332.769531 C 87.417969 331.496094 86.988281 330.21875 86.617188 328.925781 C 86.617188 328.925781 90.414062 325.140625 94.105469 321.273438 C 97.808594 317.421875 101.410156 313.492188 101.410156 313.492188 C 101.410156 313.492188 97.605469 316.257812 93.601562 318.882812 C 89.664062 321.460938 85.539062 323.882812 85.539062 323.882812 C 85.421875 323.152344 85.300781 322.425781 85.210938 321.695312 C 85.082031 320.746094 84.960938 319.820312 84.890625 318.855469 C 84.824219 317.886719 84.773438 316.921875 84.730469 315.960938 C 84.644531 314.015625 84.582031 312.082031 84.527344 310.171875 C 84.507812 308.234375 84.46875 306.28125 84.414062 304.394531 C 84.375 303.445312 84.332031 302.503906 84.273438 301.578125 C 84.222656 300.652344 84.1875 299.695312 84.105469 298.765625 C 83.960938 296.917969 83.757812 295.125 83.414062 293.398438 C 83.300781 292.511719 83.089844 291.660156 82.910156 290.820312 C 82.820312 290.394531 82.683594 289.992188 82.574219 289.582031 C 82.453125 289.175781 82.351562 288.773438 82.1875 288.386719 C 82.046875 288.003906 81.886719 287.628906 81.765625 287.234375 C 81.707031 287.035156 81.625 286.847656 81.546875 286.660156 C 81.46875 286.46875 81.386719 286.28125 81.308594 286.097656 C 81.234375 285.910156 81.15625 285.730469 81.078125 285.542969 L 80.941406 285.226562 L 80.816406 284.980469 C 80.644531 284.660156 80.476562 284.335938 80.308594 284.019531 L 80.179688 283.78125 L 80.035156 283.535156 L 79.734375 283.042969 L 79.441406 282.558594 C 79.339844 282.394531 79.253906 282.230469 79.15625 282.082031 C 78.769531 281.457031 78.414062 280.835938 77.988281 280.273438 C 77.78125 279.992188 77.582031 279.707031 77.378906 279.425781 C 77.160156 279.160156 76.949219 278.894531 76.738281 278.628906 C 76.53125 278.363281 76.308594 278.109375 76.089844 277.859375 C 75.875 277.605469 75.667969 277.351562 75.460938 277.101562 C 73.796875 275.121094 71.9375 273.554688 70.320312 272.167969 C 68.664062 270.816406 67.003906 269.796875 65.71875 268.933594 C 65.046875 268.53125 64.453125 268.152344 63.894531 267.871094 C 63.34375 267.585938 62.886719 267.324219 62.488281 267.144531 C 61.703125 266.773438 61.28125 266.578125 61.28125 266.578125 C 61.28125 266.578125 61.644531 266.851562 62.320312 267.367188 C 62.660156 267.609375 63.054688 267.953125 63.515625 268.339844 C 63.988281 268.710938 64.488281 269.183594 65.054688 269.6875 C 65.332031 269.949219 65.617188 270.21875 65.914062 270.515625 C 66.226562 270.792969 66.550781 271.09375 66.878906 271.40625 C 67.539062 272.035156 68.222656 272.726562 68.90625 273.496094 C 69.25 273.875 69.59375 274.28125 69.933594 274.699219 C 70.28125 275.113281 70.660156 275.53125 71.019531 275.976562 C 71.742188 276.859375 72.449219 277.816406 73.121094 278.855469 C 73.285156 279.121094 73.445312 279.386719 73.628906 279.644531 C 73.8125 279.898438 73.992188 280.164062 74.15625 280.4375 C 74.328125 280.707031 74.5 280.980469 74.675781 281.261719 C 74.835938 281.539062 74.996094 281.832031 75.160156 282.117188 C 75.496094 282.691406 75.78125 283.304688 76.089844 283.921875 C 76.167969 284.070312 76.234375 284.222656 76.300781 284.378906 C 76.363281 284.542969 76.4375 284.691406 76.511719 284.839844 C 76.585938 284.992188 76.660156 285.144531 76.738281 285.292969 L 76.847656 285.523438 L 76.953125 285.777344 C 77.101562 286.121094 77.246094 286.46875 77.394531 286.816406 L 77.507812 287.078125 C 77.472656 287 77.503906 287.078125 77.5 287.066406 L 77.507812 287.097656 L 77.53125 287.15625 L 77.574219 287.289062 L 77.746094 287.789062 L 77.921875 288.296875 C 77.980469 288.472656 78.042969 288.636719 78.082031 288.816406 C 78.171875 289.171875 78.265625 289.53125 78.359375 289.894531 C 78.457031 290.246094 78.523438 290.621094 78.609375 290.980469 C 78.6875 291.351562 78.796875 291.707031 78.859375 292.09375 C 78.980469 292.851562 79.136719 293.617188 79.207031 294.425781 C 79.300781 295.21875 79.367188 296.039062 79.417969 296.886719 C 79.4375 297.308594 79.464844 297.722656 79.496094 298.140625 C 79.519531 298.554688 79.542969 298.980469 79.566406 299.410156 C 79.585938 299.839844 79.597656 300.265625 79.613281 300.703125 C 79.617188 301.140625 79.625 301.582031 79.628906 302.027344 C 79.636719 302.46875 79.644531 302.914062 79.636719 303.367188 C 79.636719 303.824219 79.636719 304.277344 79.632812 304.734375 C 79.609375 305.660156 79.617188 306.566406 79.617188 307.496094 C 79.613281 308.429688 79.613281 309.363281 79.609375 310.304688 C 79.609375 311.261719 79.609375 312.226562 79.609375 313.195312 C 79.617188 314.164062 79.609375 315.171875 79.65625 316.132812 C 79.746094 318.097656 79.894531 320.109375 80.136719 322.144531 C 80.265625 323.15625 80.394531 324.203125 80.59375 325.203125 C 80.789062 326.203125 81.019531 327.203125 81.28125 328.210938 C 81.414062 328.714844 81.535156 329.21875 81.683594 329.71875 C 81.835938 330.226562 81.988281 330.726562 82.136719 331.230469 C 82.289062 331.730469 82.480469 332.230469 82.652344 332.730469 C 82.824219 333.238281 83.015625 333.710938 83.230469 334.191406 C 84.035156 336.121094 85.023438 338.007812 86.089844 339.839844 L 86.507812 340.515625 C 86.648438 340.742188 86.796875 340.953125 86.941406 341.171875 C 87.089844 341.386719 87.230469 341.605469 87.386719 341.816406 C 87.542969 342.027344 87.699219 342.238281 87.855469 342.449219 C 88.167969 342.867188 88.472656 343.289062 88.789062 343.699219 C 89.125 344.101562 89.457031 344.507812 89.789062 344.90625 C 89.953125 345.105469 90.117188 345.304688 90.285156 345.503906 C 90.460938 345.699219 90.636719 345.898438 90.8125 346.09375 C 91.167969 346.484375 91.515625 346.875 91.882812 347.242188 C 92.242188 347.601562 92.59375 347.914062 92.953125 348.25 L 93.75 348.988281 L 93.816406 349.042969 L 93.882812 349.113281 L 93.921875 349.144531 L 94.070312 349.269531 C 94.835938 349.933594 95.617188 350.566406 96.410156 351.171875 C 96.808594 351.460938 97.199219 351.773438 97.609375 352.035156 C 98.015625 352.296875 98.425781 352.550781 98.839844 352.800781 C 100.484375 353.789062 102.140625 354.636719 103.761719 355.335938 C 105.398438 356.003906 107.019531 356.496094 108.550781 356.914062 C 110.089844 357.3125 111.53125 357.644531 112.925781 357.777344 C 115.703125 358.089844 118.0625 358.101562 119.964844 357.976562 C 120.925781 357.859375 121.769531 357.777344 122.492188 357.628906 C 123.214844 357.5 123.832031 357.398438 124.304688 357.273438 C 125.265625 357.035156 125.777344 356.914062 125.777344 356.914062 C 125.777344 356.914062 125.242188 356.9375 124.238281 356.988281 " fill-opacity="1" fill-rule="nonzero"/><g clip-path="url(#9238315ea5)"><path fill="#79cee8" d="M 185.441406 364.703125 C 184.535156 365.144531 183.183594 365.722656 181.414062 366.390625 C 180.964844 366.558594 180.496094 366.699219 179.996094 366.839844 C 179.5 366.976562 178.976562 367.121094 178.425781 367.257812 C 177.324219 367.535156 176.125 367.796875 174.832031 368.011719 C 174.421875 368.082031 174.003906 368.152344 173.574219 368.210938 C 173.363281 368.242188 173.148438 368.269531 172.929688 368.300781 C 172.714844 368.320312 172.488281 368.332031 172.273438 368.351562 C 171.382812 368.410156 170.460938 368.457031 169.511719 368.460938 C 169.511719 368.460938 170.777344 363.210938 171.878906 357.953125 C 172.4375 355.316406 172.953125 352.699219 173.335938 350.699219 C 173.703125 348.710938 173.941406 347.378906 173.941406 347.378906 C 173.941406 347.378906 173.539062 348.714844 172.898438 350.710938 C 172.257812 352.675781 171.371094 355.296875 170.425781 357.921875 C 169.480469 360.539062 168.480469 363.160156 167.703125 365.125 C 166.929688 367.089844 166.386719 368.394531 166.386719 368.394531 C 166.28125 368.386719 166.179688 368.378906 166.074219 368.375 C 165.679688 368.355469 165.277344 368.324219 164.875 368.289062 C 164.46875 368.230469 164.0625 368.175781 163.65625 368.109375 C 162.835938 367.96875 162.015625 367.808594 161.1875 367.617188 C 160.359375 367.429688 159.527344 367.210938 158.695312 366.964844 C 157.867188 366.722656 157.039062 366.460938 156.222656 366.105469 L 156.066406 366.042969 L 156.027344 366.03125 C 156.105469 366.0625 156.023438 366.023438 156.03125 366.03125 L 155.953125 365.992188 L 155.628906 365.851562 C 155.414062 365.753906 155.199219 365.652344 154.984375 365.558594 C 154.738281 365.453125 154.492188 365.34375 154.246094 365.230469 C 154.246094 365.230469 155.683594 360.207031 156.996094 355.160156 C 157.65625 352.644531 158.292969 350.121094 158.757812 348.230469 C 159.21875 346.328125 159.527344 345.058594 159.527344 345.058594 C 159.527344 345.058594 159.390625 345.347656 159.148438 345.84375 C 158.902344 346.328125 158.554688 347.03125 158.136719 347.871094 C 157.289062 349.550781 156.128906 351.785156 154.914062 354.011719 C 152.496094 358.46875 149.808594 362.886719 149.808594 362.886719 C 149.511719 362.6875 149.214844 362.488281 148.914062 362.289062 L 148.332031 361.898438 C 148.136719 361.769531 147.953125 361.625 147.761719 361.488281 C 147.386719 361.207031 147.011719 360.9375 146.632812 360.65625 C 146.269531 360.355469 145.90625 360.066406 145.539062 359.773438 L 144.996094 359.328125 L 144.46875 358.863281 C 144.117188 358.554688 143.761719 358.25 143.417969 357.933594 C 143.078125 357.617188 142.75 357.261719 142.414062 356.925781 C 141.484375 355.933594 140.582031 354.90625 139.726562 353.855469 C 139.726562 353.855469 141.703125 348.882812 143.558594 343.878906 C 145.421875 338.882812 147.160156 333.859375 147.160156 333.859375 C 147.160156 333.859375 144.773438 337.882812 142.144531 341.847656 C 140.839844 343.835938 139.488281 345.8125 138.449219 347.285156 C 137.929688 348.03125 137.5 348.621094 137.195312 349.042969 C 136.886719 349.460938 136.710938 349.703125 136.710938 349.703125 C 136.316406 349.070312 135.921875 348.441406 135.542969 347.796875 C 134.558594 346.144531 133.664062 344.449219 132.8125 342.75 C 131.957031 341.015625 131.148438 339.210938 130.34375 337.457031 C 129.949219 336.582031 129.542969 335.710938 129.132812 334.847656 L 128.519531 333.5625 L 127.929688 332.246094 C 127.113281 330.496094 126.308594 328.800781 125.414062 327.199219 C 125.195312 326.792969 124.964844 326.414062 124.75 326 C 124.53125 325.589844 124.3125 325.183594 124.085938 324.789062 C 123.636719 323.992188 123.171875 323.226562 122.671875 322.492188 C 122.203125 321.746094 121.664062 321.0625 121.15625 320.386719 C 120.910156 320.03125 120.628906 319.695312 120.371094 319.359375 C 120.101562 319.03125 119.851562 318.6875 119.558594 318.390625 C 119.277344 318.085938 118.996094 317.78125 118.71875 317.484375 C 118.582031 317.328125 118.429688 317.191406 118.28125 317.054688 L 117.832031 316.652344 L 117.390625 316.246094 L 117.136719 316.015625 L 116.921875 315.847656 C 116.640625 315.613281 116.363281 315.375 116.085938 315.140625 L 115.878906 314.960938 L 115.648438 314.785156 L 115.1875 314.4375 L 114.734375 314.09375 C 114.582031 313.976562 114.433594 313.871094 114.277344 313.773438 C 113.667969 313.375 113.085938 312.957031 112.460938 312.628906 C 112.15625 312.457031 111.867188 312.257812 111.574219 312.074219 C 111.273438 311.90625 110.976562 311.738281 110.679688 311.570312 C 110.097656 311.226562 109.492188 310.949219 108.90625 310.664062 C 108.316406 310.390625 107.722656 310.148438 107.144531 309.914062 C 106.578125 309.652344 106.015625 309.421875 105.457031 309.210938 C 104.339844 308.789062 103.25 308.453125 102.199219 308.179688 C 101.664062 308.054688 101.171875 307.90625 100.6875 307.78125 C 100.199219 307.65625 99.726562 307.542969 99.265625 307.453125 C 98.34375 307.253906 97.484375 307.109375 96.695312 306.996094 C 95.902344 306.902344 95.1875 306.8125 94.578125 306.753906 C 93.96875 306.699219 93.449219 306.632812 93.015625 306.621094 C 92.160156 306.566406 91.699219 306.550781 91.699219 306.550781 C 91.699219 306.550781 92.132812 306.667969 92.949219 306.890625 C 93.355469 306.984375 93.839844 307.160156 94.410156 307.339844 C 94.984375 307.507812 95.65625 307.710938 96.386719 307.941406 C 97.113281 308.191406 97.90625 308.472656 98.75 308.808594 C 99.59375 309.136719 100.464844 309.550781 101.429688 309.941406 C 102.382812 310.359375 103.367188 310.832031 104.363281 311.386719 C 104.867188 311.660156 105.359375 311.964844 105.875 312.269531 C 106.398438 312.554688 106.921875 312.867188 107.449219 313.195312 C 107.964844 313.542969 108.511719 313.859375 109.023438 314.25 C 109.28125 314.4375 109.546875 314.632812 109.8125 314.824219 C 110.066406 315.027344 110.328125 315.234375 110.585938 315.445312 C 111.128906 315.824219 111.644531 316.257812 112.179688 316.679688 C 112.320312 316.789062 112.445312 316.898438 112.566406 317.011719 L 112.945312 317.351562 L 113.324219 317.695312 L 113.511719 317.867188 L 113.707031 318.0625 C 113.972656 318.328125 114.238281 318.597656 114.507812 318.867188 L 114.714844 319.066406 C 114.652344 319.011719 114.707031 319.066406 114.703125 319.0625 L 114.722656 319.085938 L 114.765625 319.136719 L 114.855469 319.242188 C 114.96875 319.378906 115.09375 319.503906 115.214844 319.632812 L 115.582031 320.019531 C 115.707031 320.144531 115.832031 320.273438 115.941406 320.417969 C 116.171875 320.703125 116.402344 320.984375 116.632812 321.269531 C 116.875 321.546875 117.078125 321.871094 117.300781 322.175781 C 117.511719 322.492188 117.75 322.785156 117.953125 323.121094 C 118.363281 323.78125 118.789062 324.460938 119.183594 325.152344 C 120.007812 326.507812 120.765625 328 121.503906 329.558594 C 121.683594 329.957031 121.867188 330.355469 122.046875 330.753906 C 122.226562 331.15625 122.402344 331.566406 122.578125 331.980469 C 122.765625 332.375 122.953125 332.773438 123.132812 333.183594 C 123.3125 333.59375 123.496094 334.003906 123.679688 334.414062 C 124.394531 336.117188 125.121094 337.839844 125.855469 339.585938 C 126.21875 340.492188 126.621094 341.324219 127.011719 342.214844 C 127.417969 343.097656 127.820312 343.980469 128.230469 344.867188 C 128.660156 345.769531 129.105469 346.667969 129.574219 347.574219 C 129.808594 348.023438 130.046875 348.480469 130.289062 348.929688 C 130.535156 349.382812 130.792969 349.804688 131.054688 350.238281 C 132.101562 351.972656 133.25 353.6875 134.527344 355.355469 C 134.847656 355.769531 135.160156 356.191406 135.492188 356.601562 C 135.828125 357.011719 136.175781 357.386719 136.519531 357.785156 C 136.859375 358.175781 137.238281 358.542969 137.597656 358.921875 C 137.964844 359.292969 138.324219 359.679688 138.714844 360.039062 C 140.222656 361.5 141.863281 362.929688 143.59375 364.09375 C 144.035156 364.382812 144.476562 364.675781 144.914062 364.960938 C 145.136719 365.105469 145.351562 365.253906 145.578125 365.390625 C 145.804688 365.523438 146.03125 365.660156 146.257812 365.792969 C 146.710938 366.0625 147.160156 366.332031 147.617188 366.589844 C 148.082031 366.832031 148.546875 367.078125 149.007812 367.320312 C 149.242188 367.4375 149.472656 367.542969 149.707031 367.652344 C 149.949219 367.753906 150.191406 367.859375 150.429688 367.957031 C 150.914062 368.164062 151.398438 368.367188 151.875 368.566406 C 152.351562 368.761719 152.796875 368.917969 153.257812 369.085938 C 153.484375 369.171875 153.710938 369.25 153.941406 369.332031 L 154.285156 369.457031 L 154.367188 369.488281 L 154.457031 369.519531 L 154.5 369.539062 L 154.683594 369.59375 C 156.625 370.265625 158.574219 370.636719 160.476562 370.910156 C 161.425781 371.046875 162.367188 371.152344 163.289062 371.21875 C 163.75 371.257812 164.207031 371.285156 164.660156 371.304688 C 165.113281 371.316406 165.558594 371.296875 166 371.285156 C 167.769531 371.226562 169.449219 371.074219 171.015625 370.847656 C 171.796875 370.730469 172.558594 370.625 173.285156 370.449219 C 174.003906 370.277344 174.707031 370.085938 175.371094 369.886719 C 176.710938 369.496094 177.914062 369.066406 179 368.621094 C 180.089844 368.1875 181.0625 367.757812 181.90625 367.289062 C 182.738281 366.800781 183.492188 366.398438 184.09375 365.976562 C 184.703125 365.570312 185.230469 365.242188 185.621094 364.945312 C 186.410156 364.347656 186.828125 364.035156 186.828125 364.035156 C 186.828125 364.035156 186.347656 364.265625 185.441406 364.703125 " fill-opacity="1" fill-rule="nonzero"/></g><g clip-path="url(#536eacff03)"><path fill="#0a7ea4" d="M 233.710938 99.558594 C 212.40625 70.066406 190.367188 39.574219 178.367188 9.011719 L 174.832031 0 L 168.109375 6.972656 C 167.800781 7.296875 136.847656 39.5625 106.359375 84.378906 C 88.402344 110.777344 74.082031 136.347656 63.789062 160.375 C 59.480469 170.4375 55.4375 180.675781 52.527344 191.242188 C 39.460938 238.652344 39.363281 272.894531 38.574219 277.386719 C 38.484375 277.898438 38.382812 278.40625 38.304688 278.921875 C 38.230469 279.445312 38.15625 279.964844 38.085938 280.484375 C 38.007812 281.003906 37.976562 281.539062 37.921875 282.0625 C 37.875 282.589844 37.816406 283.117188 37.796875 283.652344 C 37.617188 285.796875 37.761719 287.910156 37.953125 290.023438 C 38.019531 290.558594 38.085938 291.085938 38.152344 291.613281 C 38.1875 291.875 38.214844 292.136719 38.257812 292.402344 C 38.304688 292.667969 38.347656 292.925781 38.394531 293.1875 C 38.4375 293.457031 38.484375 293.714844 38.527344 293.976562 C 38.578125 294.230469 38.632812 294.488281 38.695312 294.742188 C 38.828125 295.25 38.960938 295.753906 39.09375 296.257812 C 39.164062 296.511719 39.226562 296.761719 39.296875 297.015625 C 39.375 297.269531 39.453125 297.519531 39.53125 297.773438 C 39.691406 298.285156 39.847656 298.785156 40.003906 299.285156 C 40.167969 299.78125 40.339844 300.222656 40.507812 300.6875 C 40.59375 300.917969 40.675781 301.148438 40.761719 301.378906 C 40.761719 301.378906 40.792969 301.464844 40.824219 301.550781 C 40.859375 301.636719 40.894531 301.71875 40.894531 301.71875 L 40.925781 301.800781 L 40.964844 301.894531 L 40.984375 301.9375 L 41.066406 302.113281 C 41.90625 303.976562 42.855469 305.746094 43.878906 307.394531 C 44.136719 307.804688 44.382812 308.222656 44.664062 308.609375 C 44.945312 308.988281 45.230469 309.363281 45.511719 309.730469 C 46.085938 310.464844 46.675781 311.167969 47.269531 311.835938 C 49.585938 314.546875 52.191406 316.53125 54.488281 318.097656 C 55.628906 318.894531 56.785156 319.503906 57.851562 320.039062 C 58.914062 320.566406 59.902344 321.003906 60.792969 321.363281 C 61.691406 321.695312 62.476562 322.015625 63.1875 322.214844 C 63.902344 322.40625 64.507812 322.585938 64.996094 322.679688 C 65.976562 322.882812 66.496094 322.992188 66.496094 322.992188 C 66.496094 322.992188 65.996094 322.78125 65.058594 322.386719 C 64.589844 322.1875 64.003906 321.945312 63.355469 321.609375 C 62.710938 321.269531 61.976562 320.863281 61.152344 320.394531 C 60.339844 319.90625 59.445312 319.347656 58.492188 318.707031 C 58.019531 318.386719 57.527344 318.042969 57.03125 317.675781 C 56.546875 317.289062 56.054688 316.886719 55.554688 316.453125 C 54.289062 315.363281 52.976562 314.113281 51.675781 312.710938 C 51.675781 312.710938 56.507812 310.226562 61.230469 307.605469 C 65.964844 305.003906 70.589844 302.269531 70.589844 302.269531 C 70.589844 302.269531 69.324219 302.828125 67.398438 303.636719 C 65.476562 304.445312 62.890625 305.492188 60.265625 306.5 C 57.628906 307.519531 55.023438 308.441406 53.03125 309.121094 C 51.046875 309.808594 49.707031 310.242188 49.707031 310.242188 C 49.644531 310.160156 49.582031 310.074219 49.519531 309.992188 C 49.039062 309.347656 48.570312 308.671875 48.117188 307.972656 C 47.671875 307.265625 47.207031 306.5625 46.832031 305.792969 C 46.050781 304.261719 45.34375 302.648438 44.738281 300.980469 L 44.664062 300.789062 C 44.691406 300.871094 44.664062 300.789062 44.667969 300.792969 L 44.640625 300.707031 L 44.527344 300.371094 C 44.457031 300.148438 44.378906 299.925781 44.308594 299.699219 C 44.222656 299.453125 44.140625 299.191406 44.066406 298.929688 C 44.066406 298.929688 45.25 298.375 47.019531 297.550781 C 48.800781 296.707031 51.164062 295.574219 53.515625 294.425781 C 58.21875 292.125 62.855469 289.730469 62.855469 289.730469 C 62.855469 289.730469 61.636719 290.054688 59.792969 290.519531 C 57.945312 290.980469 55.457031 291.578125 53 292.085938 C 50.527344 292.609375 48.027344 293.089844 46.136719 293.421875 C 44.25 293.765625 42.976562 293.96875 42.976562 293.96875 C 42.921875 293.617188 42.867188 293.269531 42.8125 292.914062 C 42.777344 292.683594 42.742188 292.453125 42.707031 292.222656 C 42.671875 291.988281 42.65625 291.757812 42.628906 291.527344 C 42.59375 291.054688 42.5625 290.582031 42.53125 290.109375 C 42.519531 289.636719 42.503906 289.164062 42.492188 288.6875 L 42.480469 287.976562 L 42.488281 287.269531 C 42.496094 286.789062 42.5 286.320312 42.511719 285.847656 C 42.542969 285.378906 42.570312 284.910156 42.597656 284.429688 C 42.683594 283.101562 42.902344 281.71875 43.140625 280.371094 C 43.140625 280.371094 48.1875 278.628906 53.179688 276.773438 C 55.671875 275.851562 58.164062 274.902344 60.039062 274.167969 C 61.90625 273.433594 63.148438 272.949219 63.148438 272.949219 C 63.148438 272.949219 62.855469 273 62.347656 273.085938 C 61.832031 273.171875 61.101562 273.296875 60.226562 273.441406 C 58.488281 273.714844 56.160156 274.054688 53.808594 274.347656 C 49.109375 274.957031 44.300781 275.34375 44.300781 275.34375 C 44.402344 274.988281 44.503906 274.632812 44.605469 274.28125 C 44.714844 273.925781 44.832031 273.566406 44.957031 273.210938 C 48.683594 261.960938 52.210938 250.628906 54.804688 239.0625 C 56.992188 229.296875 58.460938 219.390625 60.628906 209.628906 C 64.597656 191.714844 71 174.390625 78.621094 157.734375 C 86.109375 141.371094 94.832031 125.582031 104.320312 110.300781 C 108.257812 103.957031 112.332031 97.707031 116.527344 91.535156 C 138.191406 59.660156 160.082031 34.277344 170.609375 22.59375 C 183.613281 51.4375 203.925781 79.5625 223.636719 106.835938 C 255.546875 151.011719 288.542969 196.679688 288.542969 243.742188 C 288.542969 259.003906 285.523438 274.214844 279.636719 288.300781 C 273.925781 301.96875 265.570312 314.492188 255.183594 325.046875 C 250.007812 330.296875 244.339844 335.058594 238.269531 339.25 C 231.574219 343.867188 224.816406 348.5625 216.734375 350.371094 C 203.4375 353.359375 191.773438 346.34375 182.046875 337.839844 C 180.625 336.597656 179.1875 335.476562 177.722656 334.3125 C 176.269531 333.179688 174.824219 332.101562 173.328125 331.230469 C 172.964844 331.003906 172.59375 330.765625 172.21875 330.542969 C 171.84375 330.316406 171.476562 330.097656 171.101562 329.882812 C 170.734375 329.664062 170.351562 329.492188 169.976562 329.296875 C 169.597656 329.117188 169.238281 328.917969 168.851562 328.785156 C 168.472656 328.628906 168.09375 328.476562 167.722656 328.328125 C 167.539062 328.25 167.34375 328.191406 167.152344 328.136719 C 166.964844 328.085938 166.773438 328.011719 166.589844 327.945312 C 166.402344 327.875 166.214844 327.808594 166.027344 327.738281 L 165.707031 327.628906 L 165.445312 327.550781 C 165.097656 327.457031 164.753906 327.367188 164.40625 327.277344 L 164.148438 327.210938 L 163.871094 327.148438 C 163.6875 327.109375 163.503906 327.074219 163.316406 327.035156 C 163.136719 327 162.949219 326.960938 162.769531 326.921875 C 162.585938 326.886719 162.40625 326.855469 162.230469 326.832031 C 161.875 326.78125 161.523438 326.738281 161.171875 326.6875 C 160.828125 326.621094 160.484375 326.5625 160.140625 326.53125 C 159.796875 326.488281 159.460938 326.445312 159.121094 326.402344 C 158.785156 326.382812 158.449219 326.359375 158.117188 326.332031 C 157.457031 326.277344 156.800781 326.289062 156.160156 326.289062 C 155.839844 326.289062 155.523438 326.3125 155.210938 326.308594 C 154.898438 326.300781 154.589844 326.308594 154.285156 326.3125 C 153.675781 326.328125 153.078125 326.359375 152.492188 326.410156 C 151.324219 326.5 150.210938 326.6875 149.164062 326.867188 C 147.089844 327.171875 145.269531 327.664062 143.769531 328.136719 C 143.019531 328.410156 142.359375 328.574219 141.789062 328.796875 C 141.214844 329 140.726562 329.164062 140.335938 329.328125 C 139.546875 329.660156 139.128906 329.832031 139.128906 329.832031 C 139.128906 329.832031 139.566406 329.757812 140.382812 329.609375 C 140.789062 329.523438 141.292969 329.464844 141.875 329.386719 C 142.167969 329.34375 142.480469 329.304688 142.8125 329.273438 C 143.148438 329.222656 143.507812 329.175781 143.882812 329.117188 C 145.386719 328.929688 147.179688 328.789062 149.199219 328.800781 C 150.21875 328.765625 151.292969 328.769531 152.410156 328.839844 C 152.96875 328.875 153.539062 328.925781 154.121094 328.996094 C 154.410156 329.03125 154.703125 329.066406 155 329.105469 C 155.296875 329.128906 155.597656 329.164062 155.898438 329.195312 C 156.503906 329.285156 157.121094 329.335938 157.742188 329.464844 C 158.050781 329.523438 158.363281 329.578125 158.679688 329.640625 C 158.992188 329.714844 159.308594 329.789062 159.625 329.863281 C 160.261719 330.007812 160.898438 330.226562 161.554688 330.363281 C 161.71875 330.394531 161.878906 330.441406 162.039062 330.492188 C 162.195312 330.535156 162.355469 330.585938 162.515625 330.636719 C 162.671875 330.675781 162.832031 330.726562 162.992188 330.777344 L 163.234375 330.847656 L 163.488281 330.941406 C 163.835938 331.0625 164.1875 331.1875 164.539062 331.316406 L 164.804688 331.414062 C 164.726562 331.386719 164.796875 331.414062 164.789062 331.414062 L 164.820312 331.425781 L 164.878906 331.449219 L 165 331.503906 L 165.480469 331.714844 L 165.96875 331.933594 C 166.132812 332.003906 166.296875 332.070312 166.453125 332.164062 C 166.773438 332.34375 167.097656 332.484375 167.421875 332.648438 C 167.753906 332.792969 168.070312 332.992188 168.390625 333.171875 C 168.714844 333.363281 169.046875 333.523438 169.367188 333.738281 C 170.007812 334.160156 170.667969 334.558594 171.308594 335.054688 C 171.953125 335.511719 172.597656 336.042969 173.253906 336.539062 C 173.898438 337.03125 174.546875 337.558594 175.199219 338.097656 C 175.527344 338.378906 175.851562 338.652344 176.179688 338.933594 C 176.503906 339.222656 176.832031 339.523438 177.160156 339.816406 C 177.492188 340.101562 177.820312 340.398438 178.152344 340.710938 C 178.488281 341.015625 178.816406 341.324219 179.152344 341.628906 C 179.488281 341.953125 179.816406 342.257812 180.152344 342.558594 C 180.488281 342.859375 180.824219 343.171875 181.164062 343.476562 C 181.851562 344.101562 182.53125 344.730469 183.222656 345.367188 C 183.925781 346.003906 184.632812 346.652344 185.339844 347.304688 C 186.0625 347.945312 186.796875 348.632812 187.53125 349.242188 C 189.035156 350.488281 190.613281 351.726562 192.265625 352.898438 C 193.09375 353.488281 193.941406 354.066406 194.816406 354.625 C 195.683594 355.144531 196.574219 355.644531 197.488281 356.125 C 197.941406 356.359375 198.394531 356.601562 198.859375 356.824219 C 203.691406 359.113281 208.75 360.585938 214.105469 360.90625 C 218.75 361.175781 223.441406 360.628906 227.875 359.210938 C 236.65625 356.402344 244.386719 350.507812 251.566406 344.886719 C 262.199219 336.566406 271.519531 326.570312 279.078125 315.375 C 286.722656 304.050781 292.542969 291.503906 296.238281 278.339844 C 299.390625 267.09375 300.972656 255.421875 300.972656 243.742188 C 300.972656 192.660156 266.777344 145.328125 233.710938 99.558594 " fill-opacity="1" fill-rule="nonzero"/></g><path fill="#0a7ea4" d="M 221.117188 185.070312 L 186.828125 185.070312 L 186.828125 150.78125 L 154.820312 150.78125 L 154.820312 185.070312 L 120.53125 185.070312 L 120.53125 217.078125 L 154.820312 217.078125 L 154.820312 251.371094 L 186.828125 251.371094 L 186.828125 217.078125 L 221.117188 217.078125 L 221.117188 185.070312 " fill-opacity="1" fill-rule="nonzero"/></svg>