<svg xmlns="http://www.w3.org/2000/svg" xmlns:xlink="http://www.w3.org/1999/xlink" width="500" zoomAndPan="magnify" viewBox="0 0 375 374.999991" height="500" preserveAspectRatio="xMidYMid meet" version="1.0"><defs><clipPath id="69ee599ac6"><path d="M 50.738281 153 L 323.738281 153 L 323.738281 371.515625 L 50.738281 371.515625 Z M 50.738281 153 " clip-rule="nonzero"/></clipPath><clipPath id="f891b37ccc"><path d="M 98 4.765625 L 277 4.765625 L 277 146 L 98 146 Z M 98 4.765625 " clip-rule="nonzero"/></clipPath></defs><g clip-path="url(#69ee599ac6)"><path fill="#0a7ea4" d="M 86.808594 371.398438 L 287.285156 371.398438 C 307.113281 371.398438 323.226562 355.289062 323.226562 335.457031 L 323.226562 189.9375 C 323.226562 170.117188 307.113281 153.996094 287.285156 153.996094 L 86.808594 153.996094 C 66.992188 153.996094 50.871094 170.109375 50.871094 189.9375 L 50.871094 335.457031 C 50.878906 355.289062 66.992188 371.398438 86.808594 371.398438 Z M 165.78125 223.78125 C 174.007812 217.171875 184.648438 214.910156 195.113281 217.171875 C 207.203125 219.90625 216.378906 228.769531 219.773438 240.542969 C 223 252.140625 220.421875 264.226562 212.523438 273.089844 C 211.558594 274.222656 210.429688 275.351562 209.140625 276.316406 C 207.527344 277.761719 206.878906 279.867188 207.683594 281.636719 L 216.230469 301.78125 C 217.675781 305.164062 217.351562 309.199219 215.269531 312.257812 C 213.171875 315.316406 209.621094 317.253906 205.925781 317.253906 L 168.214844 317.253906 C 164.503906 317.253906 160.953125 315.316406 158.871094 312.257812 C 156.929688 309.199219 156.449219 305.164062 157.90625 301.78125 L 166.609375 281.46875 C 167.261719 279.699219 166.769531 277.761719 165.164062 276.472656 C 157.433594 270.03125 153.078125 260.519531 153.078125 250.367188 C 153.054688 240.0625 157.726562 230.226562 165.78125 223.78125 Z M 165.78125 223.78125 " fill-opacity="1" fill-rule="nonzero"/></g><g clip-path="url(#f891b37ccc)"><path fill="#0a7ea4" d="M 130.972656 94.214844 C 130.972656 63.269531 156.113281 38.128906 187.058594 38.128906 C 218.003906 38.128906 243.140625 63.269531 243.140625 94.214844 L 243.140625 145.460938 L 276.023438 145.460938 L 276.023438 93.734375 C 276.015625 44.730469 236.050781 4.765625 187.058594 4.765625 C 138.066406 4.765625 98.101562 44.730469 98.101562 93.722656 L 98.101562 145.449219 L 130.984375 145.449219 L 130.984375 94.214844 Z M 130.972656 94.214844 " fill-opacity="1" fill-rule="nonzero"/></g><path fill="#0a7ea4" d="M 174.488281 284.695312 L 165.949219 305.164062 C 165.46875 306.285156 165.78125 307.101562 166.117188 307.425781 C 166.273438 307.910156 166.925781 308.546875 168.214844 308.546875 L 205.925781 308.546875 C 207.210938 308.546875 207.863281 307.898438 208.019531 307.425781 C 208.34375 307.101562 208.824219 306.296875 208.34375 305.164062 L 199.804688 285.019531 C 197.542969 279.699219 199.15625 273.582031 203.671875 269.875 C 204.476562 269.066406 205.453125 268.261719 206.089844 267.296875 C 210.449219 262.625 212.542969 256.664062 212.542969 250.378906 C 212.542969 247.960938 212.21875 245.382812 211.582031 242.960938 C 209.003906 234.089844 202.238281 227.648438 193.207031 225.554688 C 191.113281 225.226562 189.175781 224.902344 187.089844 224.902344 C 181.285156 224.902344 175.808594 226.839844 171.292969 230.550781 C 165.175781 235.378906 161.625 242.636719 161.625 250.367188 C 161.625 257.941406 164.851562 265.023438 170.652344 269.863281 C 175.125 273.738281 176.582031 279.699219 174.488281 284.695312 Z M 174.488281 284.695312 " fill-opacity="1" fill-rule="nonzero"/></svg>