<svg xmlns="http://www.w3.org/2000/svg" xmlns:xlink="http://www.w3.org/1999/xlink" width="500" zoomAndPan="magnify" viewBox="0 0 375 374.999991" height="500" preserveAspectRatio="xMidYMid meet" version="1.0"><defs><clipPath id="a58a9bd825"><path d="M 95 4.042969 L 274 4.042969 L 274 183 L 95 183 Z M 95 4.042969 " clip-rule="nonzero"/></clipPath><clipPath id="44a62707f8"><path d="M 38 204 L 335 204 L 335 373.792969 L 38 373.792969 Z M 38 204 " clip-rule="nonzero"/></clipPath></defs><g clip-path="url(#a58a9bd825)"><path fill="#0a7ea4" d="M 273.898438 93.457031 C 273.898438 94.917969 273.863281 96.378906 273.792969 97.839844 C 273.722656 99.296875 273.613281 100.753906 273.46875 102.207031 C 273.328125 103.664062 273.148438 105.113281 272.933594 106.558594 C 272.71875 108.003906 272.46875 109.441406 272.183594 110.875 C 271.898438 112.308594 271.578125 113.734375 271.226562 115.148438 C 270.871094 116.566406 270.480469 117.976562 270.054688 119.375 C 269.632812 120.769531 269.171875 122.160156 268.679688 123.535156 C 268.1875 124.910156 267.664062 126.273438 267.105469 127.621094 C 266.546875 128.972656 265.953125 130.308594 265.328125 131.628906 C 264.703125 132.949219 264.046875 134.253906 263.359375 135.542969 C 262.671875 136.832031 261.949219 138.101562 261.199219 139.355469 C 260.449219 140.609375 259.667969 141.839844 258.855469 143.054688 C 258.042969 144.269531 257.203125 145.464844 256.332031 146.640625 C 255.460938 147.8125 254.5625 148.964844 253.636719 150.09375 C 252.707031 151.222656 251.753906 152.328125 250.773438 153.410156 C 249.792969 154.492188 248.785156 155.550781 247.753906 156.585938 C 246.71875 157.617188 245.660156 158.625 244.578125 159.605469 C 243.496094 160.585938 242.390625 161.542969 241.261719 162.46875 C 240.132812 163.394531 238.980469 164.292969 237.804688 165.164062 C 236.632812 166.035156 235.4375 166.875 234.222656 167.6875 C 233.007812 168.5 231.773438 169.28125 230.523438 170.03125 C 229.269531 170.78125 227.996094 171.503906 226.710938 172.191406 C 225.421875 172.878906 224.117188 173.535156 222.796875 174.160156 C 221.472656 174.785156 220.140625 175.378906 218.789062 175.9375 C 217.4375 176.496094 216.078125 177.023438 214.699219 177.515625 C 213.324219 178.007812 211.9375 178.464844 210.539062 178.890625 C 209.140625 179.3125 207.734375 179.703125 206.316406 180.058594 C 204.898438 180.414062 203.476562 180.734375 202.042969 181.019531 C 200.609375 181.300781 199.167969 181.550781 197.722656 181.765625 C 196.28125 181.980469 194.828125 182.160156 193.375 182.304688 C 191.921875 182.445312 190.464844 182.554688 189.003906 182.625 C 187.546875 182.695312 186.085938 182.734375 184.625 182.734375 C 183.164062 182.734375 181.703125 182.695312 180.246094 182.625 C 178.785156 182.554688 177.328125 182.445312 175.875 182.304688 C 174.421875 182.160156 172.972656 181.980469 171.527344 181.765625 C 170.082031 181.550781 168.640625 181.300781 167.207031 181.019531 C 165.777344 180.734375 164.351562 180.414062 162.933594 180.058594 C 161.515625 179.703125 160.109375 179.3125 158.710938 178.890625 C 157.3125 178.464844 155.925781 178.007812 154.550781 177.515625 C 153.171875 177.023438 151.8125 176.496094 150.460938 175.9375 C 149.109375 175.378906 147.777344 174.785156 146.457031 174.160156 C 145.132812 173.535156 143.828125 172.878906 142.542969 172.191406 C 141.253906 171.503906 139.980469 170.78125 138.730469 170.03125 C 137.476562 169.28125 136.242188 168.5 135.027344 167.6875 C 133.8125 166.875 132.617188 166.035156 131.445312 165.164062 C 130.269531 164.292969 129.117188 163.394531 127.988281 162.46875 C 126.859375 161.542969 125.753906 160.585938 124.671875 159.605469 C 123.589844 158.625 122.53125 157.617188 121.5 156.585938 C 120.464844 155.550781 119.457031 154.492188 118.476562 153.410156 C 117.496094 152.328125 116.542969 151.222656 115.613281 150.09375 C 114.6875 148.964844 113.789062 147.8125 112.917969 146.640625 C 112.046875 145.464844 111.207031 144.269531 110.394531 143.054688 C 109.582031 141.839844 108.800781 140.609375 108.050781 139.355469 C 107.300781 138.101562 106.582031 136.832031 105.890625 135.542969 C 105.203125 134.253906 104.546875 132.949219 103.921875 131.628906 C 103.296875 130.308594 102.703125 128.972656 102.144531 127.621094 C 101.585938 126.273438 101.0625 124.910156 100.570312 123.535156 C 100.078125 122.15625 99.617188 120.769531 99.195312 119.375 C 98.769531 117.976562 98.378906 116.566406 98.027344 115.148438 C 97.671875 113.734375 97.351562 112.308594 97.066406 110.875 C 96.78125 109.441406 96.53125 108.003906 96.316406 106.558594 C 96.101562 105.113281 95.921875 103.664062 95.78125 102.207031 C 95.636719 100.753906 95.53125 99.296875 95.457031 97.839844 C 95.386719 96.378906 95.351562 94.917969 95.351562 93.457031 C 95.351562 91.996094 95.386719 90.535156 95.457031 89.078125 C 95.53125 87.617188 95.636719 86.160156 95.78125 84.707031 C 95.921875 83.253906 96.101562 81.804688 96.316406 80.359375 C 96.53125 78.914062 96.78125 77.472656 97.066406 76.042969 C 97.351562 74.609375 97.671875 73.183594 98.027344 71.765625 C 98.378906 70.347656 98.769531 68.941406 99.195312 67.542969 C 99.617188 66.144531 100.078125 64.757812 100.570312 63.382812 C 101.0625 62.007812 101.585938 60.644531 102.144531 59.292969 C 102.703125 57.945312 103.296875 56.609375 103.921875 55.289062 C 104.546875 53.96875 105.203125 52.664062 105.890625 51.375 C 106.582031 50.085938 107.300781 48.816406 108.050781 47.5625 C 108.800781 46.308594 109.582031 45.074219 110.394531 43.859375 C 111.207031 42.644531 112.046875 41.449219 112.917969 40.277344 C 113.789062 39.101562 114.6875 37.953125 115.613281 36.824219 C 116.542969 35.691406 117.496094 34.585938 118.476562 33.503906 C 119.457031 32.421875 120.464844 31.363281 121.5 30.332031 C 122.53125 29.296875 123.589844 28.289062 124.671875 27.308594 C 125.753906 26.328125 126.859375 25.375 127.988281 24.449219 C 129.117188 23.519531 130.269531 22.621094 131.445312 21.75 C 132.617188 20.882812 133.8125 20.039062 135.027344 19.226562 C 136.242188 18.417969 137.476562 17.636719 138.730469 16.882812 C 139.980469 16.132812 141.253906 15.414062 142.542969 14.722656 C 143.828125 14.035156 145.132812 13.378906 146.457031 12.753906 C 147.777344 12.128906 149.109375 11.539062 150.460938 10.980469 C 151.8125 10.417969 153.171875 9.894531 154.550781 9.402344 C 155.925781 8.910156 157.3125 8.453125 158.710938 8.027344 C 160.109375 7.601562 161.515625 7.214844 162.933594 6.859375 C 164.351562 6.503906 165.777344 6.183594 167.207031 5.898438 C 168.640625 5.613281 170.082031 5.363281 171.527344 5.148438 C 172.972656 4.933594 174.421875 4.757812 175.875 4.613281 C 177.328125 4.46875 178.785156 4.363281 180.246094 4.289062 C 181.703125 4.21875 183.164062 4.183594 184.625 4.183594 C 186.085938 4.183594 187.546875 4.21875 189.003906 4.289062 C 190.464844 4.363281 191.921875 4.46875 193.375 4.613281 C 194.828125 4.757812 196.28125 4.933594 197.722656 5.148438 C 199.167969 5.363281 200.609375 5.613281 202.042969 5.898438 C 203.476562 6.183594 204.898438 6.503906 206.316406 6.859375 C 207.734375 7.214844 209.140625 7.601562 210.539062 8.027344 C 211.9375 8.453125 213.324219 8.910156 214.699219 9.402344 C 216.078125 9.894531 217.4375 10.417969 218.789062 10.980469 C 220.140625 11.539062 221.472656 12.128906 222.796875 12.753906 C 224.117188 13.378906 225.421875 14.035156 226.710938 14.722656 C 227.996094 15.414062 229.269531 16.132812 230.523438 16.882812 C 231.773438 17.636719 233.007812 18.417969 234.222656 19.226562 C 235.4375 20.039062 236.632812 20.882812 237.804688 21.75 C 238.980469 22.621094 240.132812 23.519531 241.261719 24.449219 C 242.390625 25.375 243.496094 26.328125 244.578125 27.308594 C 245.660156 28.289062 246.71875 29.296875 247.753906 30.332031 C 248.785156 31.363281 249.792969 32.421875 250.773438 33.503906 C 251.753906 34.585938 252.707031 35.691406 253.636719 36.824219 C 254.5625 37.953125 255.460938 39.101562 256.332031 40.277344 C 257.203125 41.449219 258.042969 42.644531 258.855469 43.859375 C 259.667969 45.074219 260.449219 46.308594 261.199219 47.5625 C 261.949219 48.816406 262.671875 50.085938 263.359375 51.375 C 264.046875 52.664062 264.703125 53.96875 265.328125 55.289062 C 265.953125 56.609375 266.546875 57.945312 267.105469 59.292969 C 267.664062 60.644531 268.1875 62.007812 268.679688 63.382812 C 269.171875 64.757812 269.632812 66.144531 270.054688 67.542969 C 270.480469 68.941406 270.871094 70.347656 271.226562 71.765625 C 271.578125 73.183594 271.898438 74.609375 272.183594 76.042969 C 272.46875 77.472656 272.71875 78.914062 272.933594 80.359375 C 273.148438 81.804688 273.328125 83.253906 273.46875 84.707031 C 273.613281 86.160156 273.722656 87.617188 273.792969 89.078125 C 273.863281 90.535156 273.898438 91.996094 273.898438 93.457031 Z M 273.898438 93.457031 " fill-opacity="1" fill-rule="nonzero"/></g><g clip-path="url(#44a62707f8)"><path fill="#0a7ea4" d="M 334.972656 280.363281 C 334.972656 280.363281 335.179688 271.992188 333.585938 256.734375 C 333.585938 256.605469 333.585938 256.484375 333.550781 256.351562 C 333.21875 253.246094 332.628906 250.1875 331.777344 247.183594 C 330.921875 244.175781 329.820312 241.265625 328.472656 238.445312 C 327.121094 235.628906 325.542969 232.945312 323.734375 230.394531 C 321.925781 227.847656 319.914062 225.46875 317.703125 223.265625 C 315.476562 221.035156 313.082031 219.007812 310.511719 217.183594 C 307.945312 215.359375 305.242188 213.765625 302.40625 212.398438 C 299.570312 211.03125 296.636719 209.910156 293.609375 209.039062 C 290.582031 208.167969 287.503906 207.558594 284.375 207.207031 C 279.511719 206.6875 272.746094 206.242188 264.921875 205.851562 L 264.921875 265.898438 C 265.746094 266.394531 266.535156 266.929688 267.296875 267.511719 C 268.0625 268.09375 268.789062 268.710938 269.484375 269.371094 C 270.179688 270.03125 270.839844 270.726562 271.457031 271.457031 C 272.078125 272.1875 272.65625 272.949219 273.195312 273.742188 C 273.730469 274.535156 274.222656 275.355469 274.671875 276.203125 C 275.121094 277.050781 275.523438 277.917969 275.875 278.808594 C 276.230469 279.699219 276.535156 280.605469 276.792969 281.53125 C 277.046875 282.453125 277.253906 283.386719 277.40625 284.335938 C 277.5625 285.28125 277.664062 286.230469 277.714844 287.1875 C 277.769531 288.144531 277.765625 289.101562 277.714844 290.058594 C 277.664062 291.015625 277.558594 291.96875 277.402344 292.914062 C 277.25 293.859375 277.042969 294.792969 276.785156 295.714844 C 276.527344 296.640625 276.222656 297.546875 275.867188 298.4375 C 275.511719 299.324219 275.109375 300.195312 274.660156 301.039062 C 274.210938 301.886719 273.71875 302.707031 273.179688 303.5 C 272.644531 304.292969 272.0625 305.054688 271.441406 305.785156 C 270.824219 306.515625 270.164062 307.210938 269.46875 307.867188 C 268.773438 308.527344 268.042969 309.148438 267.28125 309.726562 C 266.515625 310.304688 265.726562 310.84375 264.902344 311.335938 C 264.082031 311.832031 263.238281 312.277344 262.367188 312.679688 C 261.5 313.082031 260.609375 313.4375 259.699219 313.742188 C 258.792969 314.050781 257.871094 314.304688 256.933594 314.511719 C 256 314.71875 255.054688 314.871094 254.101562 314.976562 C 253.148438 315.078125 252.195312 315.132812 251.234375 315.132812 C 250.277344 315.132812 249.320312 315.078125 248.371094 314.976562 C 247.417969 314.871094 246.472656 314.71875 245.535156 314.511719 C 244.601562 314.304688 243.679688 314.050781 242.769531 313.742188 C 241.863281 313.4375 240.972656 313.082031 240.105469 312.679688 C 239.234375 312.277344 238.386719 311.832031 237.566406 311.335938 C 236.746094 310.84375 235.953125 310.304688 235.191406 309.726562 C 234.429688 309.148438 233.699219 308.527344 233.003906 307.867188 C 232.308594 307.210938 231.648438 306.515625 231.027344 305.785156 C 230.40625 305.054688 229.828125 304.292969 229.289062 303.5 C 228.753906 302.707031 228.257812 301.886719 227.808594 301.039062 C 227.359375 300.195312 226.957031 299.324219 226.605469 298.4375 C 226.25 297.546875 225.941406 296.640625 225.6875 295.714844 C 225.429688 294.792969 225.222656 293.859375 225.066406 292.914062 C 224.914062 291.96875 224.808594 291.015625 224.757812 290.058594 C 224.703125 289.101562 224.703125 288.144531 224.753906 287.1875 C 224.804688 286.230469 224.910156 285.28125 225.0625 284.335938 C 225.21875 283.386719 225.425781 282.453125 225.679688 281.53125 C 225.9375 280.605469 226.242188 279.699219 226.59375 278.808594 C 226.949219 277.917969 227.351562 277.050781 227.800781 276.203125 C 228.246094 275.355469 228.738281 274.535156 229.277344 273.742188 C 229.816406 272.949219 230.394531 272.1875 231.011719 271.457031 C 231.632812 270.726562 232.289062 270.03125 232.984375 269.371094 C 233.679688 268.710938 234.410156 268.09375 235.171875 267.511719 C 235.933594 266.929688 236.726562 266.394531 237.546875 265.898438 L 237.546875 204.84375 C 221.445312 204.410156 204.652344 204.1875 191.511719 204.1875 C 177.105469 204.1875 155.59375 204.453125 135.476562 204.980469 L 135.476562 241.535156 C 136.769531 241.90625 138.046875 242.324219 139.308594 242.800781 C 140.566406 243.273438 141.804688 243.796875 143.023438 244.367188 C 144.238281 244.941406 145.429688 245.5625 146.597656 246.234375 C 147.765625 246.902344 148.902344 247.617188 150.011719 248.378906 C 151.121094 249.140625 152.199219 249.945312 153.242188 250.792969 C 154.285156 251.640625 155.296875 252.53125 156.269531 253.460938 C 157.242188 254.390625 158.175781 255.355469 159.070312 256.359375 C 159.964844 257.367188 160.816406 258.40625 161.625 259.480469 C 162.4375 260.554688 163.203125 261.65625 163.925781 262.792969 C 164.644531 263.929688 165.320312 265.089844 165.949219 266.28125 C 166.574219 267.472656 167.15625 268.683594 167.683594 269.921875 C 168.214844 271.160156 168.691406 272.414062 169.121094 273.691406 C 169.550781 274.964844 169.925781 276.253906 170.25 277.5625 C 170.574219 278.867188 170.84375 280.183594 171.0625 281.511719 C 171.28125 282.839844 171.445312 284.171875 171.554688 285.515625 C 171.664062 286.855469 171.71875 288.199219 171.722656 289.542969 L 171.722656 301.546875 C 171.722656 302.445312 171.632812 303.335938 171.460938 304.214844 C 171.285156 305.097656 171.023438 305.953125 170.679688 306.785156 C 170.335938 307.613281 169.914062 308.402344 169.414062 309.148438 C 168.917969 309.898438 168.347656 310.589844 167.714844 311.222656 C 167.078125 311.859375 166.386719 312.425781 165.640625 312.925781 C 164.890625 313.425781 164.101562 313.847656 163.273438 314.191406 C 162.441406 314.535156 161.585938 314.796875 160.703125 314.96875 C 159.824219 315.144531 158.933594 315.234375 158.035156 315.234375 C 157.136719 315.234375 156.246094 315.144531 155.363281 314.96875 C 154.480469 314.796875 153.625 314.535156 152.796875 314.191406 C 151.964844 313.847656 151.175781 313.425781 150.429688 312.925781 C 149.683594 312.425781 148.992188 311.859375 148.355469 311.222656 C 147.71875 310.589844 147.152344 309.898438 146.652344 309.148438 C 146.152344 308.402344 145.730469 307.613281 145.386719 306.785156 C 145.042969 305.953125 144.785156 305.097656 144.609375 304.214844 C 144.433594 303.335938 144.347656 302.445312 144.347656 301.546875 L 144.347656 289.542969 C 144.347656 288.804688 144.308594 288.066406 144.238281 287.332031 C 144.164062 286.597656 144.058594 285.867188 143.914062 285.144531 C 143.769531 284.417969 143.589844 283.703125 143.375 282.996094 C 143.160156 282.289062 142.910156 281.59375 142.628906 280.910156 C 142.347656 280.230469 142.03125 279.5625 141.683594 278.910156 C 141.335938 278.257812 140.957031 277.625 140.542969 277.011719 C 140.132812 276.398438 139.695312 275.804688 139.226562 275.234375 C 138.757812 274.664062 138.261719 274.117188 137.738281 273.59375 C 137.21875 273.070312 136.671875 272.574219 136.097656 272.105469 C 135.527344 271.636719 134.9375 271.199219 134.320312 270.789062 C 133.707031 270.378906 133.074219 270 132.421875 269.648438 C 131.769531 269.300781 131.105469 268.988281 130.421875 268.703125 C 129.738281 268.421875 129.042969 268.171875 128.335938 267.957031 C 127.628906 267.742188 126.914062 267.5625 126.191406 267.421875 C 125.464844 267.277344 124.734375 267.167969 124 267.09375 C 123.265625 267.023438 122.527344 266.988281 121.789062 266.988281 C 121.050781 266.988281 120.3125 267.023438 119.578125 267.09375 C 118.84375 267.167969 118.113281 267.277344 117.390625 267.421875 C 116.664062 267.5625 115.949219 267.742188 115.242188 267.957031 C 114.535156 268.171875 113.839844 268.421875 113.15625 268.703125 C 112.476562 268.988281 111.808594 269.300781 111.15625 269.648438 C 110.503906 270 109.871094 270.378906 109.257812 270.789062 C 108.644531 271.199219 108.050781 271.636719 107.480469 272.105469 C 106.910156 272.574219 106.363281 273.070312 105.839844 273.59375 C 105.316406 274.117188 104.820312 274.664062 104.351562 275.234375 C 103.882812 275.804688 103.445312 276.398438 103.035156 277.011719 C 102.625 277.625 102.246094 278.257812 101.898438 278.910156 C 101.546875 279.5625 101.234375 280.230469 100.949219 280.910156 C 100.667969 281.59375 100.417969 282.289062 100.203125 282.996094 C 99.988281 283.703125 99.8125 284.417969 99.667969 285.144531 C 99.523438 285.867188 99.414062 286.597656 99.34375 287.332031 C 99.269531 288.066406 99.234375 288.804688 99.234375 289.542969 L 99.234375 301.546875 C 99.234375 302.445312 99.144531 303.335938 98.96875 304.214844 C 98.792969 305.097656 98.535156 305.953125 98.191406 306.785156 C 97.847656 307.613281 97.425781 308.402344 96.925781 309.148438 C 96.425781 309.898438 95.859375 310.589844 95.222656 311.222656 C 94.589844 311.859375 93.898438 312.425781 93.148438 312.925781 C 92.402344 313.425781 91.613281 313.847656 90.785156 314.191406 C 89.953125 314.535156 89.097656 314.796875 88.214844 314.96875 C 87.335938 315.144531 86.445312 315.234375 85.546875 315.234375 C 84.644531 315.234375 83.757812 315.144531 82.875 314.96875 C 81.992188 314.796875 81.136719 314.535156 80.308594 314.191406 C 79.476562 313.847656 78.6875 313.425781 77.941406 312.925781 C 77.191406 312.425781 76.5 311.859375 75.867188 311.222656 C 75.230469 310.589844 74.664062 309.898438 74.164062 309.148438 C 73.664062 308.402344 73.242188 307.613281 72.898438 306.785156 C 72.554688 305.953125 72.296875 305.097656 72.121094 304.214844 C 71.945312 303.335938 71.855469 302.445312 71.855469 301.546875 L 71.855469 289.542969 C 71.859375 288.199219 71.914062 286.855469 72.023438 285.515625 C 72.136719 284.171875 72.300781 282.839844 72.519531 281.511719 C 72.734375 280.183594 73.007812 278.867188 73.332031 277.5625 C 73.65625 276.257812 74.03125 274.964844 74.460938 273.691406 C 74.886719 272.414062 75.367188 271.160156 75.898438 269.921875 C 76.425781 268.6875 77.003906 267.472656 77.632812 266.28125 C 78.261719 265.09375 78.933594 263.929688 79.65625 262.792969 C 80.378906 261.660156 81.144531 260.554688 81.953125 259.480469 C 82.765625 258.40625 83.617188 257.367188 84.511719 256.363281 C 85.40625 255.359375 86.339844 254.390625 87.3125 253.460938 C 88.285156 252.53125 89.292969 251.640625 90.335938 250.792969 C 91.382812 249.945312 92.457031 249.140625 93.566406 248.378906 C 94.675781 247.617188 95.816406 246.902344 96.980469 246.234375 C 98.148438 245.5625 99.339844 244.941406 100.558594 244.371094 C 101.773438 243.796875 103.011719 243.273438 104.273438 242.800781 C 105.53125 242.328125 106.808594 241.90625 108.101562 241.535156 L 108.101562 205.902344 C 99.839844 206.269531 92.902344 206.703125 88.296875 207.191406 C 85.167969 207.542969 82.089844 208.152344 79.0625 209.023438 C 76.035156 209.894531 73.105469 211.011719 70.265625 212.378906 C 67.429688 213.746094 64.726562 215.339844 62.160156 217.164062 C 59.589844 218.988281 57.195312 221.015625 54.96875 223.242188 C 52.757812 225.445312 50.746094 227.824219 48.9375 230.371094 C 47.128906 232.917969 45.546875 235.601562 44.199219 238.417969 C 42.847656 241.238281 41.746094 244.148438 40.894531 247.15625 C 40.042969 250.160156 39.453125 253.21875 39.121094 256.324219 L 39.078125 256.707031 C 37.484375 271.957031 38.191406 280.359375 38.191406 280.359375 C 37.804688 289.898438 38.085938 299.421875 39.035156 308.921875 C 39.035156 309.050781 39.035156 309.183594 39.070312 309.3125 C 40.375 322.003906 45.988281 334.527344 54.871094 344.734375 C 63.753906 354.945312 75.539062 362.234375 88.101562 364.847656 C 106.515625 369.222656 162.832031 373.675781 191.527344 372.96875 C 220.191406 373.164062 266.121094 369.054688 284.539062 364.886719 C 297.089844 362.242188 308.882812 354.945312 317.773438 344.777344 C 326.664062 334.613281 332.269531 322.050781 333.574219 309.347656 L 333.617188 308.957031 C 334.570312 299.453125 335.019531 289.921875 334.972656 280.363281 Z M 334.972656 280.363281 " fill-opacity="1" fill-rule="nonzero"/></g></svg>